<?xml version="1.0" encoding="UTF-8"?>
<!DOCTYPE svg PUBLIC "-//W3C//DTD SVG 1.1//EN" "http://www.w3.org/Graphics/SVG/1.1/DTD/svg11.dtd">
<!-- Creator: CorelDRAW X7 -->
<svg xmlns="http://www.w3.org/2000/svg" xml:space="preserve" width="35.7748mm" height="16.9332mm" version="1.1" style="shape-rendering:geometricPrecision; text-rendering:geometricPrecision; image-rendering:optimizeQuality; fill-rule:evenodd; clip-rule:evenodd"
viewBox="0 0 412 195"
 xmlns:xlink="http://www.w3.org/1999/xlink">
 <defs>
  <style type="text/css">
   <![CDATA[
    .fil0 {fill:#FEFEFE}
   ]]>
  </style>
 </defs>
 <g id="Layer_x0020_1">
  <metadata id="CorelCorpID_0Corel-Layer"/>
  <g id="_2348059401152">
   <path class="fil0" d="M357 91l55 -43 -59 8 -4 -56 -9 15 -26 47 -49 7 30 22c-51,55 -116,78 -169,98 67,-13 142,-39 200,-76l38 28 -7 -50z"/>
   <path class="fil0" d="M86 5c-11,-1 -29,-1 -44,3 -10,2 -19,7 -23,13 -1,3 -3,7 -2,11 1,4 3,6 5,8 -6,4 -13,6 -19,15 -5,10 -4,19 3,25 14,12 38,4 56,2l5 -17c-13,2 -45,8 -45,-2 1,-14 26,-15 39,-15l5 -15 -21 1c-3,0 -7,0 -8,-3 -2,-13 36,-12 44,-12l5 -14z"/>
   <path class="fil0" d="M140 22l-19 1 -13 40c-4,0 -12,3 -15,-1 -1,-3 2,-10 3,-13l8 -25 -20 2 -8 22c-2,7 -7,18 -3,25 4,7 14,6 24,5 4,-1 23,-2 26,-4l17 -52z"/>
   <path class="fil0" d="M76 109c10,-1 18,-1 12,10 -3,5 -10,7 -18,8l6 -18zm-14 45l4 -12c11,-2 22,-4 32,-12 7,-5 13,-18 9,-27 -4,-9 -18,-8 -30,-7 -4,1 -14,2 -17,3l-19 59 21 -4z"/>
   <path class="fil0" d="M17 195c86,-7 209,-44 263,-94 -60,31 -180,76 -263,94z"/>
   <path class="fil0" d="M203 78l-19 3 -12 36c-6,3 -11,4 -12,0 0,-3 1,-6 3,-11 2,-4 8,-20 9,-23l-19 3 -10 29c-2,6 -6,22 19,17l24 -6 17 -48z"/>
   <path class="fil0" d="M203 28c11,-4 5,24 -7,26 -9,3 -6,-9 -4,-14 2,-5 6,-11 11,-12zm23 5c2,-19 -18,-20 -31,-13 -19,9 -33,40 -13,46 13,4 41,-8 44,-33z"/>
   <path class="fil0" d="M295 43c-18,0 -7,-23 7,-23l-7 23zm25 -34l-17 1c-18,1 -26,10 -29,19 -6,15 2,26 17,24l15 -2 14 -42z"/>
   <path class="fil0" d="M248 23c8,0 11,1 8,9 -2,6 -6,6 -13,6l5 -15zm-8 26c8,0 14,-1 20,-5 10,-7 19,-28 0,-30 -5,-1 -18,0 -24,1l-15 47 15 -2 4 -11z"/>
   <path class="fil0" d="M245 72l-20 3c-8,1 -12,2 -17,7 -3,3 -8,10 -4,16 4,5 13,4 15,7 2,3 -4,4 -6,5l-18 3 -3 12 28 -6c10,-3 20,-15 14,-22 -5,-5 -14,-3 -16,-7 0,-1 3,-3 10,-5l14 -2 3 -11z"/>
   <path class="fil0" d="M181 19c-18,0 -27,1 -37,16 -5,6 -12,30 -15,39l20 -3 8 -24c2,-5 4,-16 20,-15l4 -13z"/>
   <path class="fil0" d="M129 117l9 -29 -18 2 -12 36c-2,7 1,13 6,15 5,1 18,-2 20,-3l4 -12c-8,1 -13,4 -9,-9z"/>
  </g>
 </g>
</svg>
