<?xml version="1.0" encoding="UTF-8"?>
<!DOCTYPE svg PUBLIC "-//W3C//DTD SVG 1.1//EN" "http://www.w3.org/Graphics/SVG/1.1/DTD/svg11.dtd">
<!-- Creator: CorelDRAW X7 -->
<svg xmlns="http://www.w3.org/2000/svg" xml:space="preserve" width="23.821mm" height="16.9736mm" version="1.1" style="shape-rendering:geometricPrecision; text-rendering:geometricPrecision; image-rendering:optimizeQuality; fill-rule:evenodd; clip-rule:evenodd"
viewBox="0 0 1732 1234"
 xmlns:xlink="http://www.w3.org/1999/xlink">
 <defs>
  <style type="text/css">
   <![CDATA[
    .fil0 {fill:#FEFEFE}
   ]]>
  </style>
 </defs>
 <g id="Layer_x0020_1">
  <metadata id="CorelCorpID_0Corel-Layer"/>
  <polygon class="fil0" points="1732,976 1731,975 1720,975 1704,1012 1688,975 1677,975 1677,1034 1686,1034 1686,992 1700,1026 1708,1026 1723,992 1721,1033 1723,1034 1731,1034 1732,1033 "/>
  <polygon class="fil0" points="1669,976 1668,975 1629,975 1629,984 1644,984 1644,1033 1645,1034 1653,1034 1653,984 1668,984 1669,983 "/>
  <path class="fil0" d="M685 975c-57,0 -89,32 -97,98l-7 67c-2,28 -15,43 -40,47 -6,0 -10,3 -10,10l0 26c0,6 4,9 10,9 54,0 84,-31 90,-95l6 -59c2,-22 6,-36 12,-43 7,-8 20,-12 38,-12l43 0 0 198c0,6 3,9 9,9l31 0c6,0 9,-3 9,-9l0 -237c0,-6 -3,-9 -9,-9l-85 0z"/>
  <path class="fil0" d="M334 1123l0 -139c0,-6 -3,-9 -9,-9l-33 0c-5,0 -9,3 -9,9l0 155c0,63 30,95 90,95 30,0 57,-11 83,-32l6 22c2,4 5,6 8,6l22 0c7,0 10,-3 10,-8l0 -238c0,-6 -4,-9 -11,-9l-30 0c-7,0 -10,3 -10,9l0 166c-19,23 -42,34 -70,34 -31,0 -47,-21 -47,-61z"/>
  <path class="fil0" d="M246 1115c0,-79 -43,-119 -129,-119l-65 0 0 -77 149 0c7,0 10,-4 10,-11l0 -29c0,-7 -3,-10 -10,-10l-191 0c-7,0 -10,3 -10,10l0 244c0,72 34,108 102,108l9 0c90,0 135,-39 135,-116zm-128 -71c50,0 74,24 74,71 0,45 -24,68 -74,68l-16 0c-33,0 -50,-19 -50,-55l0 -84 66 0z"/>
  <path class="fil0" d="M1524 1077l-117 0 0 -93c0,-6 -3,-9 -9,-9l-32 0c-6,0 -9,3 -8,9l0 237c-1,6 2,9 8,9l32 0c6,0 9,-3 9,-9l0 -98 117 0 0 98c0,6 3,9 10,9l30 0c7,0 10,-3 10,-9l0 -237c0,-6 -3,-9 -10,-9l-30 0c-7,0 -10,3 -10,9l0 93z"/>
  <path class="fil0" d="M1289 975l-31 0c-7,0 -10,3 -10,9l0 166c-19,23 -42,34 -70,34 -31,0 -47,-21 -47,-61l0 -139c0,-6 -3,-9 -9,-9l-31 0c-7,0 -11,3 -11,9l0 155c0,63 30,95 90,95 32,0 60,-11 84,-32l4 22c3,4 6,6 9,6l22 0c6,0 10,-3 10,-8l0 -238c0,-6 -4,-9 -10,-9z"/>
  <path class="fil0" d="M1297 879c0,-7 -3,-10 -9,-10l-197 0c-7,0 -11,3 -11,10l0 29c0,7 4,11 11,11l197 0c6,0 9,-4 9,-11l0 -29z"/>
  <path class="fil0" d="M969 1023c5,6 8,17 8,32l0 6 -57 3c-63,4 -95,32 -95,84 0,57 33,86 97,86 23,0 45,-6 65,-19l5 9c3,4 7,6 9,6l19 0c5,0 7,-3 7,-8l0 -167c0,-59 -32,-89 -99,-89 -28,0 -54,4 -76,13 -3,3 -6,6 -6,9l0 29c1,4 3,7 5,8 3,0 6,1 8,1 20,-8 44,-12 69,-12 20,0 34,3 41,9zm-47 164c-29,0 -43,-13 -43,-39 0,-25 13,-38 40,-40l56 -6 2 69c-19,11 -37,16 -55,16z"/>
  <path class="fil0" d="M497 128c183,-16 385,-16 568,0 -69,-79 -171,-128 -284,-128 -113,0 -214,49 -284,128z"/>
  <path class="fil0" d="M1069 627c-178,14 -390,15 -576,0 70,81 173,132 288,132 115,0 218,-51 288,-132z"/>
  <path class="fil0" d="M414 283c247,-4 488,-5 734,0 8,31 13,63 13,97 0,29 -4,57 -10,84 -250,7 -496,5 -740,0 -6,-27 -10,-55 -10,-84 0,-34 5,-66 13,-97z"/>
 </g>
</svg>
