<?xml version="1.0" encoding="UTF-8"?>
<!DOCTYPE svg PUBLIC "-//W3C//DTD SVG 1.1//EN" "http://www.w3.org/Graphics/SVG/1.1/DTD/svg11.dtd">
<!-- Creator: CorelDRAW X7 -->
<svg xmlns="http://www.w3.org/2000/svg" xml:space="preserve" width="17.6258mm" height="16.9334mm" version="1.1" style="shape-rendering:geometricPrecision; text-rendering:geometricPrecision; image-rendering:optimizeQuality; fill-rule:evenodd; clip-rule:evenodd"
viewBox="0 0 77 74"
 xmlns:xlink="http://www.w3.org/1999/xlink">
 <defs>
  <style type="text/css">
   <![CDATA[
    .fil0 {fill:#FEFEFE}
   ]]>
  </style>
 </defs>
 <g id="Layer_x0020_1">
  <metadata id="CorelCorpID_0Corel-Layer"/>
  <g id="_2348058612256">
   <path class="fil0" d="M62 5l3 3 -42 24 -20 -12 2 -4 18 11 39 -22zm-9 -5l5 2 -35 20 -16 -9 3 -3 13 7 30 -17zm15 11l2 3 -47 27 -22 -13 1 -4 21 13 45 -26z"/>
   <path class="fil0" d="M75 23c1,4 2,8 2,12 0,5 -1,9 -2,13l-1 2c-2,5 -5,9 -8,13 -4,3 -8,6 -13,8 -5,2 -10,3 -15,3 -5,0 -10,-1 -15,-3 -4,-2 -8,-5 -12,-8 -3,-4 -6,-8 -8,-13 -2,-4 -3,-10 -3,-15 0,0 0,0 0,0l0 -2 23 13 50 -28 2 5 0 0z"/>
  </g>
 </g>
</svg>
