<?xml version="1.0" encoding="UTF-8"?>
<!DOCTYPE svg PUBLIC "-//W3C//DTD SVG 1.1//EN" "http://www.w3.org/Graphics/SVG/1.1/DTD/svg11.dtd">
<!-- Creator: CorelDRAW X7 -->
<svg xmlns="http://www.w3.org/2000/svg" xml:space="preserve" width="33.3912mm" height="16.9333mm" version="1.1" style="shape-rendering:geometricPrecision; text-rendering:geometricPrecision; image-rendering:optimizeQuality; fill-rule:evenodd; clip-rule:evenodd"
viewBox="0 0 892 453"
 xmlns:xlink="http://www.w3.org/1999/xlink">
 <defs>
  <style type="text/css">
   <![CDATA[
    .fil0 {fill:#FEFEFE}
    .fil1 {fill:#FEFEFE;fill-rule:nonzero}
   ]]>
  </style>
 </defs>
 <g id="Layer_x0020_1">
  <metadata id="CorelCorpID_0Corel-Layer"/>
  <g id="_2348222036288">
   <g>
    <path class="fil0" d="M692 220c6,-3 13,0 17,4 4,5 3,13 1,19 -3,8 -43,37 -49,43 -10,7 -60,46 -36,5 10,-18 27,-36 41,-50 8,-8 15,-15 26,-21zm-479 32c1,-2 24,-35 41,-28 2,7 -2,8 -6,11 -8,6 -26,17 -35,17zm154 56c-3,-25 68,-98 78,-92 6,3 -16,32 -18,35 3,5 2,-1 5,4 -11,9 -21,18 -32,28 -5,5 -27,24 -33,25zm363 -81c4,-12 13,-29 19,-41 7,-13 15,-25 23,-36 10,-13 45,-58 71,-48 5,14 -41,59 -51,69 -6,6 -58,55 -62,56zm-10 -14c-4,-1 -4,-3 -9,-6 -36,-18 -86,51 -100,83 -4,10 -3,6 -15,16 -4,3 -6,5 -12,5 0,-9 30,-61 30,-77 -1,-10 -11,-14 -21,-13 -19,2 -48,21 -65,32 -2,1 -3,3 -5,4 -3,3 -17,14 -21,15 2,-5 22,-34 27,-41 5,-6 7,-9 0,-13 -8,2 -31,33 -37,41 -3,4 -36,40 -44,33 -9,-12 24,-48 -6,-45 2,-8 10,-17 11,-26 4,-27 -39,-27 -78,38 -13,22 -8,19 -35,39 -6,4 -19,13 -27,10 -7,-5 18,-28 27,-42 24,-33 -22,-28 -28,-31 1,-9 24,-24 23,-36 -6,-4 -14,-3 -20,1 -9,6 -19,16 -25,27 -6,11 1,12 4,18 -10,16 -57,57 -79,63 -19,5 -24,-9 -19,-25 9,-29 17,-10 57,-39 6,-5 24,-18 7,-27 -12,-7 -15,-17 -32,-6 -18,12 -33,28 -44,52 -12,26 -8,60 27,54 26,-4 67,-41 82,-61 3,-3 8,-10 13,-11 4,-1 20,-1 24,0 2,15 -39,40 -33,62 6,20 34,6 48,-6 3,-2 11,-10 14,-10 -2,11 -6,19 2,28 8,1 16,-7 21,-11 6,-5 11,-10 18,-15 5,-5 30,-30 36,-29 -1,11 -6,23 0,34 7,13 21,-2 30,-3 1,4 5,7 11,9l33 -27c2,-2 5,-4 8,-6 7,-6 86,-64 80,-35 0,3 -26,51 -31,67 -5,13 -3,16 5,24 7,-1 13,-6 18,-9 4,-4 12,-11 17,-13 -1,20 7,19 21,12 17,-9 37,-24 52,-35 5,-4 21,-19 25,-19 0,8 -3,19 -4,29 -1,17 -2,63 23,61 7,0 10,-2 11,-7 -7,1 -17,10 -22,-16 -2,-13 -1,-28 0,-41 2,-13 5,-24 8,-35 2,-10 3,-8 8,-13 19,-17 37,-32 56,-52 14,-14 28,-28 42,-44 9,-10 37,-41 20,-55 -17,-13 -51,12 -60,19 -25,23 -46,57 -61,89 -1,4 -5,13 -6,15z"/>
    <path class="fil0" d="M100 286c0,-8 65,-130 77,-155 30,-66 -15,-76 -57,-53 -17,10 -32,20 -45,33l-21 17c-7,7 -13,12 -19,19 -6,6 -33,37 -35,43 7,10 11,8 20,1 6,-5 12,-9 18,-16 6,-6 31,-28 32,-36 -3,-3 -5,-3 -6,-6 2,-7 10,-11 17,-17l21 -15c95,-61 76,-12 39,55 -16,31 -33,61 -48,92 -8,16 -16,30 -24,46 -4,8 -7,16 -11,24 -5,10 -10,18 4,22 10,-5 39,-38 47,-46 21,-21 46,-50 66,-72 8,-9 15,-16 22,-24 8,-9 15,-16 22,-24 4,-5 8,-8 12,-13l80 -81c23,-21 51,-44 79,-59 11,-6 23,-10 37,-9 18,0 23,7 32,15l4 -3c-4,-15 -30,-29 -56,-22 -39,10 -94,59 -122,88 -22,23 -40,39 -63,64l-100 111c-7,8 -15,20 -22,21z"/>
    <path class="fil0" d="M158 373c22,5 54,7 79,7 56,-2 108,-6 162,-10 40,-4 256,-33 281,15 2,6 2,11 8,13 8,-10 -1,-24 -7,-29 -9,-7 -18,-10 -30,-13 -102,-21 -285,14 -400,16 -27,0 -54,-1 -78,-8 -34,-10 -29,-25 -35,-29 -3,-3 -12,-4 -18,-3 -8,2 -8,31 38,41z"/>
    <path class="fil0" d="M746 308c-3,-26 70,-100 79,-92 5,5 -29,49 -32,53 -5,6 -38,38 -47,39zm69 -45c0,11 -7,30 3,38 5,5 12,1 17,-2 5,-2 10,-7 13,-9 19,-15 23,-22 36,-35 3,-4 11,-9 8,-15 -4,1 -11,10 -15,14 -12,12 -25,26 -39,36 -23,15 -6,-25 -6,-26 1,-4 3,-10 1,-14 -3,-4 -7,-3 -9,-4 -1,0 -1,0 -1,0l-2 0c4,-9 16,-24 10,-36 -8,-13 -28,-2 -36,3 -23,16 -58,63 -59,92 -2,29 21,6 23,4 6,-4 9,-7 14,-11 5,-5 9,-9 13,-13 5,-4 9,-7 14,-11 3,-3 4,-4 7,-6 3,-3 3,-5 8,-5z"/>
   </g>
   <g>
    <path class="fil1" d="M499 421c0,1 0,3 0,6 0,1 0,4 1,9l0 2c0,2 0,4 0,5 0,3 0,6 0,8 0,0 0,0 0,1 0,0 0,0 1,0 0,0 0,0 0,0 0,0 1,0 1,0 0,0 0,-1 1,-1 0,-2 0,-4 0,-8 0,-1 0,-3 0,-5 0,-1 0,-1 0,-2 0,0 0,-1 0,-1 2,0 3,0 4,0 1,0 1,-1 1,-1 1,0 1,-1 1,-1 0,0 0,-1 -1,-1 0,0 0,0 -1,0 -1,0 -3,0 -5,0l0 -5c0,-3 0,-5 0,-6 0,-1 0,-1 0,-1 0,-1 0,-1 0,-1l0 -1c0,0 0,0 0,0 0,0 0,0 0,0 0,0 1,0 2,0 0,0 1,0 1,0 1,0 2,0 3,0 0,0 1,0 1,0 0,-1 1,-1 1,-1 0,0 0,-1 0,-1 0,0 -1,0 -1,-1 0,0 0,0 -1,0 -1,0 -2,0 -3,0 0,0 -1,0 -1,0 -3,0 -4,1 -5,2 0,0 0,1 0,3 0,0 0,1 0,1zm17 -5c0,1 0,1 0,2 0,3 0,7 0,12 1,6 1,11 1,13 0,0 0,1 0,2 0,1 0,1 0,2 0,1 0,2 0,3 0,1 1,2 1,2 1,0 1,1 2,1 0,0 0,0 0,0 1,0 2,-1 4,-1 0,0 1,0 1,0 0,0 0,0 0,0 0,0 0,0 0,0 1,0 1,0 1,0 1,-1 1,-1 1,-1 0,-1 0,-1 -1,-1 0,-1 0,-1 -1,-1 0,0 0,0 0,0 0,0 0,0 0,0 -1,0 -1,0 -1,0l-2 1c-1,0 -2,0 -2,0l0 0c0,0 0,0 0,-1 0,0 -1,-1 -1,-2 0,-1 0,-1 1,-2 0,-1 0,-1 0,-2 0,-3 -1,-7 -1,-14 0,-4 0,-8 0,-11 0,-1 0,-1 0,-2 0,-1 0,-1 -1,-1 0,0 0,-1 -1,-1 0,0 0,1 -1,1 0,0 0,0 0,1zm19 4c0,2 0,4 0,7 0,4 0,9 0,15 0,0 0,0 0,1 0,2 0,2 0,3 1,2 1,3 2,4 2,1 3,2 4,2 0,0 0,0 0,0 1,0 2,-1 3,-2 0,-1 1,-3 1,-6l0 -3c0,-3 0,-7 0,-11 0,-7 0,-11 -2,-13 0,0 0,0 0,-1 0,0 0,0 -1,-1 0,0 0,0 0,0 -1,0 -1,0 -1,0 0,0 -1,0 -1,0 0,0 0,0 0,0 0,0 -1,0 -1,0 0,0 0,0 0,0 0,0 0,0 0,0 0,0 0,0 -1,0 0,0 0,0 0,0 0,0 0,0 0,0 0,0 -1,0 -1,0 0,0 -1,1 -1,2 0,1 -1,2 -1,3zm3 8c0,0 0,-1 0,-1 0,-3 0,-5 0,-6 0,-1 0,-2 0,-3 1,0 1,0 1,0 0,0 0,0 0,0 0,0 0,0 1,0 0,0 0,0 0,0l0 0c0,0 0,0 1,0l0 0c1,2 1,6 1,12 0,4 0,8 0,11l0 3c0,2 0,3 -1,4 0,1 0,1 0,1 0,0 0,0 0,0 -1,0 -1,0 -2,-1 0,0 0,-1 0,-1 -1,-1 -1,-1 -1,-2 0,0 0,-1 0,-2 0,-1 0,-1 0,-2 0,-5 0,-9 0,-13zm12 -12c0,2 0,4 1,6 0,3 1,6 1,7 0,1 0,3 1,6 0,3 0,6 1,8l0 5 1 2 0 0 0 1c0,0 0,0 0,0l0 0c0,0 0,0 0,0 0,0 0,0 0,0l0 0c0,1 1,1 1,1 1,0 1,0 2,-1 0,0 0,0 0,-1 0,0 0,0 0,0 0,0 0,0 0,0 0,0 0,-1 0,-1 0,0 1,0 1,0 0,0 0,-1 0,-1 0,0 0,0 0,-1 0,0 0,-1 0,-1 1,-3 1,-6 1,-8 0,0 0,0 0,0 0,1 0,1 0,1 0,0 0,0 0,0 1,4 1,7 1,7l1 2c0,0 0,0 0,1 0,0 0,0 0,0l0 0c0,1 0,1 0,1 0,0 0,0 0,0 0,1 0,1 1,2 0,0 0,0 0,0 1,0 1,0 1,0 0,0 1,0 1,-1 0,0 0,0 0,0 0,0 0,-1 1,-1l0 -3 1 -2 0 -1 0 -1c1,-3 1,-7 1,-11 0,-3 0,-6 0,-11 0,-1 0,-3 0,-4 0,-1 0,-1 0,-2 -1,0 -1,0 -1,0 -1,0 -1,0 -1,0 -1,1 -1,1 -1,2 0,1 0,3 0,5 0,4 0,7 0,10 0,4 0,7 -1,10l0 1c0,0 0,-2 -1,-4 0,-3 -1,-7 -1,-12 -1,-2 -1,-4 -1,-5l0 -2c0,0 0,0 0,-1 0,0 0,0 0,0 0,-1 0,-1 0,-1 0,-1 0,-1 0,-1 0,-1 0,-1 0,-1 -1,-1 -1,-1 -2,-1 0,1 -1,1 -1,1l0 1c0,0 0,1 0,2 0,0 0,1 0,2 0,0 0,1 0,1 0,1 0,3 0,5 0,7 -1,12 -1,16l-1 -1c0,-2 0,-5 0,-7 -1,-3 -1,-6 -1,-7 -1,-1 -1,-3 -2,-6 0,-3 0,-5 0,-6 0,0 -1,-1 -1,-1 0,0 0,0 -1,0 0,0 0,0 0,0 0,0 -1,0 -1,0 0,0 0,1 0,1 0,0 0,0 0,0zm25 5c0,1 0,1 0,1 0,3 0,7 0,14 1,2 1,4 1,5l0 1c0,0 0,0 0,1 0,0 0,0 0,1 0,2 -1,3 -1,5 1,0 1,0 1,0 0,0 0,1 0,1 0,0 0,1 0,1 0,0 1,1 2,1 1,0 1,0 2,0 1,0 2,0 3,0l2 0c0,0 0,-1 1,-1 0,0 0,0 0,-1 0,0 0,-1 0,-1 -1,0 -1,0 -1,0l-2 0c-1,0 -2,0 -3,0 -1,0 -1,0 -2,0l0 0c0,0 0,0 0,-1 0,-1 0,-2 0,-4 0,-1 0,-1 1,-2 0,0 0,0 0,-1l0 -1 -1 -5 1 0c0,0 1,0 2,0 0,0 1,0 1,0 1,0 1,0 1,0 0,0 1,0 1,-1 0,0 0,0 0,-1 0,0 0,0 0,-1 0,0 -1,0 -1,0 0,0 -2,0 -5,0l0 0 0 -4c0,-2 0,-4 0,-5 0,-1 0,-1 0,-2 0,-1 0,-2 0,-2 0,0 0,-1 0,-1l0 0c0,0 0,0 1,0 0,0 1,0 1,0 1,0 3,0 4,0 0,0 1,0 1,0 0,0 0,0 1,-1 0,0 0,0 -1,-1 0,0 0,0 0,0 -2,-1 -3,-1 -5,-1 0,0 0,0 0,0 -2,0 -4,1 -4,2 -1,1 -1,2 -1,4zm18 -3c0,0 0,0 0,0 0,1 0,3 0,5l0 2c1,3 1,6 1,9 0,1 0,2 0,3 0,2 0,3 0,3 0,1 0,2 0,2l0 2c0,1 0,2 0,2 0,2 0,3 0,4 0,1 0,1 0,1 0,1 0,1 1,1 0,0 0,0 0,0 0,0 1,0 1,0 0,0 0,-1 0,-1 1,-1 1,-3 1,-5 0,0 0,-1 0,-2l0 -2c0,-1 0,-1 0,-3 0,-1 0,-2 0,-2 1,-1 2,-1 3,-1l1 3c1,2 2,4 2,5 0,1 0,1 1,2 0,2 1,4 1,5 0,0 1,0 1,1 1,0 1,0 1,-1 1,0 1,0 1,0 0,-1 0,-1 0,-1 0,0 0,0 0,0l-1 -2 -1 -2 0 -2c-1,-2 -1,-3 -2,-6 -1,-2 -2,-3 -2,-4 1,-1 2,-2 2,-3 1,-1 1,-3 1,-4 0,0 0,-1 0,-1 0,-1 0,-2 0,-3 -1,-2 -1,-3 -2,-4 0,-1 -1,-2 -2,-3 -1,-1 -3,-1 -4,-1 0,0 0,0 -1,0 0,0 0,0 0,0 0,0 0,0 0,0 -1,0 -1,0 -2,0 0,0 0,0 0,0 0,1 -1,1 -1,1 0,0 0,1 0,1 0,0 0,0 0,1zm3 0c0,0 0,0 0,0l0 0c0,0 0,0 1,0 1,0 2,0 3,1 0,0 1,1 1,3 1,1 1,3 1,4 0,1 0,3 0,4 -1,2 -3,3 -5,4 0,-4 -1,-7 -1,-9 0,0 0,-1 0,-2 0,-2 0,-3 0,-4 0,-1 0,-1 0,-1zm19 8c0,0 0,0 0,0 0,2 1,4 1,5 1,0 1,0 1,1 1,0 1,1 2,1 0,0 1,0 1,0 0,0 0,1 1,1 0,0 0,0 0,0 1,0 1,0 1,0 1,1 1,1 1,1 0,1 0,1 0,2 0,0 0,0 0,1 0,0 0,1 0,1l0 2c0,2 0,3 0,4 0,0 0,1 0,1 0,1 0,2 0,2 -1,1 -1,1 -2,1 0,0 0,0 0,0 -1,0 -1,0 -1,0 0,0 0,0 -1,-1 0,-1 0,-2 0,-4l0 -2c0,-1 0,-1 0,-1 0,-1 0,-1 0,-2 0,0 -1,-1 -1,-1 0,0 -1,0 -1,0 0,0 -1,0 -1,0 0,0 0,1 0,1 0,1 0,1 0,2 0,0 0,0 0,0l0 3c0,3 0,4 1,6 0,1 1,1 1,1 1,1 2,1 3,1 0,0 0,0 0,0 2,0 3,-1 4,-2 0,-1 1,-2 1,-4 0,0 0,-1 0,-2 0,-1 0,-2 0,-3 0,-1 0,-2 0,-2 0,0 0,-1 0,-1 0,-1 0,-2 0,-2 0,-1 -1,-2 -1,-3 -1,-1 -2,-2 -3,-2l-1 0 -1 -1 0 0c0,0 -1,0 -1,-1 0,0 -1,-1 -1,-2 0,-1 0,-1 0,-1 0,-1 0,-1 0,-2 0,-1 1,-2 1,-2 0,-2 0,-4 1,-5 0,0 0,0 1,0 1,1 1,2 2,3 0,2 0,3 0,4 0,0 0,1 0,1 0,0 0,1 1,1 0,0 0,1 1,1 0,0 0,0 1,-1 0,0 0,0 0,-1 0,0 0,-1 0,-1 0,-2 0,-3 -1,-5 0,-2 -1,-3 -3,-4 0,0 -1,-1 -2,-1 0,0 0,0 0,0 -1,0 -2,1 -2,1 -2,2 -2,4 -2,7 0,0 0,1 -1,2 0,1 0,2 0,2zm41 20c0,2 1,3 2,4 3,0 4,-1 6,-3l2 4c0,0 0,0 0,1 1,0 1,0 1,0 1,0 1,-1 1,-1 0,0 0,-1 0,-1 0,-1 -1,-3 -2,-5l0 -1c0,-2 1,-3 1,-3 1,-2 1,-2 1,-2 0,-1 0,-1 0,-2 0,0 -1,0 -1,0 0,0 -1,0 -1,0 0,0 -1,0 -1,1 0,0 0,1 -1,2 0,-2 -1,-4 -2,-8 0,0 1,-1 1,-1 0,-1 1,-2 1,-3 1,-3 2,-5 2,-7 -1,-1 -1,-2 -1,-3 -1,-1 -2,-2 -3,-3 0,-1 -1,-1 -2,-2 -1,0 -2,0 -3,1 -1,1 -1,2 -1,4 0,2 1,5 2,8l1 6 0 0c-1,2 -1,5 -2,8 -1,2 -1,3 -1,4 0,1 0,2 0,2zm3 1l0 -1c0,0 0,-1 0,-1 0,-3 1,-5 2,-8 1,3 1,6 2,7l0 0c-1,2 -3,3 -4,3 0,0 0,0 0,0zm0 -29c0,-1 0,-1 0,-1l0 -1 0 0c0,0 0,0 0,0 0,0 1,1 1,1 1,1 1,2 2,3 0,0 1,1 1,1 0,2 0,3 -1,6l-1 1 -1 -3c0,-1 -1,-3 -1,-5 0,-1 0,-2 0,-2zm41 4c0,0 0,1 0,1 0,1 0,1 0,1 0,0 0,0 0,1 0,0 0,1 0,2l0 4 1 7 0 3c0,1 0,1 0,2 0,1 0,1 0,1 0,3 0,5 -1,6 0,1 0,1 1,1 0,1 0,1 0,1 1,0 1,0 1,0 0,0 1,0 1,0 0,0 1,0 1,0 2,-1 4,-2 5,-3 2,-2 3,-4 4,-6 0,-2 1,-4 1,-6 0,0 0,-1 0,-2 0,-1 0,-3 0,-4 -1,-2 -1,-5 -2,-7 -1,-2 -2,-4 -4,-6 -2,-2 -4,-3 -5,-3 -1,0 -1,0 -2,0 -1,0 -1,1 -1,2 0,1 0,2 0,3 0,0 0,1 0,2zm2 -4c0,0 0,0 1,0 0,0 0,0 0,0 0,0 0,0 1,0 0,0 1,1 2,2 1,2 3,4 3,6 1,3 2,6 2,10 0,1 0,2 0,3 -1,3 -1,5 -3,6 -1,2 -3,3 -5,4 1,-2 1,-4 1,-6 0,0 0,0 0,-1 0,-1 0,-2 0,-3 0,0 -1,-3 -1,-8l0 -3c0,-2 0,-3 0,-3l0 -1 0 -2c-1,-1 -1,-2 -1,-3 0,0 0,-1 0,-1zm19 3c0,1 0,1 0,1 0,3 0,7 0,14 0,2 0,4 0,5l0 1c0,0 0,0 0,1 0,0 0,0 0,1 0,2 0,3 0,5 0,0 0,0 0,0 0,0 0,1 0,1 0,0 0,1 1,1 0,0 1,1 2,1 1,0 1,0 2,0 1,0 2,0 3,0l1 0c1,0 1,-1 1,-1 1,0 1,0 1,-1 0,0 0,-1 -1,-1 0,0 0,0 -1,0l-1 0c-1,0 -2,0 -3,0 -1,0 -1,0 -2,0l0 0c0,0 0,0 0,-1 0,-1 0,-2 0,-4 0,-1 0,-1 0,-2 0,0 0,0 0,-1l0 -1 0 -5 0 0c1,0 2,0 2,0 1,0 2,0 2,0 0,0 1,0 1,0 0,0 0,0 1,-1 0,0 0,0 0,-1 0,0 0,0 0,-1 -1,0 -1,0 -1,0 0,0 -2,0 -5,0l0 0 0 -4c0,-2 0,-4 0,-5 0,-1 0,-1 0,-2 0,-1 0,-2 0,-2 0,0 0,-1 0,-1l0 0c0,0 0,0 0,0 1,0 1,0 2,0 1,0 2,0 4,0 0,0 0,0 1,0 0,0 0,0 0,-1 0,0 0,0 0,-1 0,0 0,0 -1,0 -1,-1 -3,-1 -4,-1 0,0 0,0 0,0 -3,0 -4,1 -5,2 0,1 0,2 0,4z"/>
    <path class="fil1" d="M740 429c0,3 0,7 0,10 1,4 1,7 2,8 1,2 2,3 4,4 1,0 2,0 2,0 1,0 1,0 1,0 1,0 2,0 3,-1 0,-1 1,-2 1,-3 1,-2 1,-4 1,-7 0,-1 0,-1 0,-1 -1,-1 -1,-1 -1,-1 -1,0 -1,0 -1,1 -1,0 -1,0 -1,1 0,3 0,5 -1,6 0,1 0,2 -1,2 0,0 0,1 -1,1 0,0 0,-1 -1,-1 -1,0 -2,-1 -3,-2 0,-2 -1,-4 -1,-7 0,-4 -1,-7 -1,-10 0,-1 0,-1 0,-2 0,-2 0,-5 1,-6 0,-2 0,-3 1,-4 1,0 1,-1 2,-1 0,0 0,1 1,1 1,0 2,1 3,3 1,1 1,3 1,4 0,1 0,1 0,1 0,1 0,1 0,1 0,1 1,1 1,1 1,0 1,0 1,-1 1,0 1,0 1,-1 0,0 0,0 0,-1 0,-2 -1,-4 -2,-6 -1,-2 -2,-3 -4,-4 -1,0 -2,0 -2,0 -2,0 -2,0 -3,1 -2,1 -3,3 -3,5 0,2 0,4 0,7 0,1 0,1 0,2zm22 -9c0,2 0,4 0,7 0,4 0,9 1,15 0,0 0,0 0,1 0,2 0,2 0,3 0,2 1,3 2,4 1,1 2,2 3,2 0,0 0,0 0,0 2,0 2,-1 3,-2 1,-1 1,-3 1,-6l0 -3c0,-3 0,-7 0,-11 0,-7 0,-11 -1,-13 0,0 -1,0 -1,-1 0,0 0,0 0,-1 -1,0 -1,0 -1,0 0,0 -1,0 -1,0 0,0 0,0 0,0 -1,0 -1,0 -1,0 0,0 0,0 0,0 -1,0 -1,0 -1,0 0,0 0,0 0,0 0,0 0,0 0,0 0,0 0,0 -1,0 0,0 0,0 0,0 0,0 0,0 0,0 -1,0 -1,1 -2,2 0,1 0,2 -1,3zm3 8c0,0 0,-1 0,-1 0,-3 0,-5 0,-6 0,-1 1,-2 1,-3 0,0 0,0 0,0 0,0 0,0 0,0 0,0 1,0 1,0 0,0 0,0 0,0l0 0c1,0 1,0 1,0l0 0c1,2 2,6 2,12 0,4 0,8 -1,11l0 3c0,2 0,3 0,4 -1,1 -1,1 -1,1 0,0 0,0 0,0 0,0 -1,0 -1,-1 -1,0 -1,-1 -1,-1 0,-1 0,-1 0,-2 0,0 0,-1 0,-2 0,-1 0,-1 0,-2 -1,-5 -1,-9 -1,-13zm14 -10c0,0 0,0 0,0 0,1 0,3 1,5l0 2c0,3 0,6 0,9 0,1 0,2 0,3 0,2 0,3 0,3 0,1 0,2 0,2l0 2c0,1 0,2 0,2 0,2 0,3 0,4 0,1 0,1 0,1 0,1 1,1 1,1 0,0 0,0 1,0 0,0 0,0 0,0 1,0 1,-1 1,-1 0,-1 0,-3 0,-5 0,0 0,-1 0,-2l0 -2c0,-1 0,-1 0,-3 0,-1 0,-2 0,-2 1,-1 2,-1 3,-1l2 3c0,2 1,4 1,5 1,1 1,1 1,2 1,2 1,4 2,5 0,0 0,0 1,1 0,0 0,0 1,-1 0,0 0,0 0,0 0,-1 0,-1 0,-1 0,0 0,0 0,0l0 -2 -1 -2 -1 -2c0,-2 -1,-3 -2,-6 -1,-2 -1,-3 -2,-4 1,-1 2,-2 2,-3 1,-1 1,-3 1,-4 0,0 0,-1 0,-1 0,-1 0,-2 0,-3 0,-2 -1,-3 -1,-4 -1,-1 -2,-2 -3,-3 -1,-1 -2,-1 -4,-1 0,0 0,0 0,0 0,0 0,0 -1,0 0,0 0,0 0,0 -1,0 -1,0 -1,0 -1,0 -1,0 -1,0 0,1 0,1 0,1 0,0 0,1 0,1 -1,0 -1,0 -1,1zm3 0c0,0 0,0 0,0l0 0c1,0 1,0 1,0 1,0 2,0 3,1 1,0 1,1 2,3 0,1 1,3 1,4 0,1 -1,3 -1,4 -1,2 -3,3 -5,4 0,-4 0,-7 0,-9 0,0 0,-1 0,-2 -1,-2 -1,-3 -1,-4 0,-1 0,-1 0,-1z"/>
   </g>
  </g>
 </g>
</svg>
