<svg width="20" height="20" viewBox="0 0 20 20" fill="none" xmlns="http://www.w3.org/2000/svg">
<path fill-rule="evenodd" clip-rule="evenodd" d="M10.0427 6.37439C7.99529 6.37439 6.37444 7.99525 6.37444 9.95733C6.37444 12.0047 7.99529 13.6256 10.0427 13.6256C12.0047 13.6256 13.7109 12.0047 13.7109 9.95733C13.7109 7.99525 12.0047 6.37439 10.0427 6.37439ZM10.0427 15.2464C7.14221 15.2464 4.7536 12.8578 4.7536 9.95733C4.7536 7.05686 7.14221 4.75354 10.0427 4.75354C12.9431 4.75354 15.2464 7.05686 15.2464 9.95733C15.2464 12.8578 12.9431 15.2464 10.0427 15.2464Z" fill="#FEFEFE"/>
<path fill-rule="evenodd" clip-rule="evenodd" d="M17.3791 4.07111C17.3791 4.83888 16.6967 5.43603 15.9289 5.43603C15.1611 5.43603 14.564 4.83888 14.564 4.07111C14.564 3.30333 15.1611 2.70618 15.9289 2.70618C16.6967 2.70618 17.3791 3.30333 17.3791 4.07111Z" fill="#FEFEFE"/>
<rect x="0.5" y="0.5" width="19" height="19" rx="3.5" stroke="white"/>
</svg>
