<?xml version="1.0" encoding="UTF-8"?>
<!DOCTYPE svg PUBLIC "-//W3C//DTD SVG 1.1//EN" "http://www.w3.org/Graphics/SVG/1.1/DTD/svg11.dtd">
<!-- Creator: CorelDRAW X7 -->
<svg xmlns="http://www.w3.org/2000/svg" xml:space="preserve" width="9.2826mm" height="6.8067mm" version="1.1" style="shape-rendering:geometricPrecision; text-rendering:geometricPrecision; image-rendering:optimizeQuality; fill-rule:evenodd; clip-rule:evenodd"
viewBox="0 0 68 50"
 xmlns:xlink="http://www.w3.org/1999/xlink">
 <defs>
  <style type="text/css">
   <![CDATA[
    .fil0 {fill:#2B2A29}
    .fil1 {fill:#1F1B20}
   ]]>
  </style>
 </defs>
 <g id="Слой_x0020_1">
  <metadata id="CorelCorpID_0Corel-Layer"/>
  <g id="_1491817076864">
   <path class="fil0" d="M6 38l0 -25c0,-1 0,-2 0,-4 0,-1 0,-2 1,-2 1,-1 2,-1 4,-1 10,0 19,0 29,0l-24 -5c-1,0 -3,0 -4,-1 -3,0 -5,0 -7,1 -1,0 -1,0 -1,0 -2,1 -2,2 -3,3 -1,1 -1,2 -1,3 0,1 0,3 0,4 1,0 1,1 1,1l4 24c0,0 1,2 1,2z"/>
   <rect class="fil1" x="9" y="11" width="7.53421" height="5.38773" rx="1" ry="1"/>
   <g>
    <path class="fil1" d="M25 25c0,-6 5,-10 11,-9 0,0 1,0 1,1l2 0c1,1 2,2 2,4 2,2 1,5 0,7 0,2 -3,4 -5,5 -6,1 -11,-3 -11,-8zm16 -9c0,0 0,0 0,0 1,1 2,1 2,2 0,0 0,0 0,0 1,1 1,1 1,2 2,3 2,6 1,9 -1,1 -1,2 -2,3 -1,1 -1,1 -2,2l-1 1c-1,0 -1,0 -1,0 -2,2 -5,2 -8,1 -1,0 -3,-1 -4,-2 -3,-2 -5,-5 -5,-8 0,-1 0,-2 0,-2l0 0c0,2 1,4 2,6 1,3 4,5 7,5 9,3 17,-7 13,-15 -1,-3 -3,-4 -3,-4zm0 0c-1,0 0,0 -1,-1 1,1 1,0 1,1zm-1 -1l0 0 0 0zm0 0c0,0 0,0 0,0 0,0 0,0 0,0zm0 0l0 0 0 0zm0 0l0 0zm0 0l0 0zm0 0l0 0zm0 0l0 0c0,0 0,0 0,0zm-1 0l0 0c0,0 0,0 0,0zm-22 9l0 2c0,3 1,6 3,9 2,2 4,4 7,5 1,1 4,2 6,2l1 0c5,0 9,-2 12,-5 0,-1 1,-2 1,-2 1,-1 1,-2 2,-3 1,-1 2,-4 2,-6l0 -2c0,-4 -3,-8 -5,-11 -1,-1 -2,-1 -3,-2 -2,-1 -5,-3 -9,-3l-1 0c-3,0 -6,2 -9,3 -2,2 -4,4 -5,7 -1,1 -2,4 -2,6z"/>
   </g>
   <path class="fil0" d="M28 44l9 2c6,1 13,2 19,3l2 1c1,0 2,0 3,0 3,-1 5,-2 6,-4 0,-1 0,-1 0,-1 1,-1 1,-2 1,-3 0,0 0,-2 -1,-3 0,-1 0,-1 0,-1 0,-3 -5,-26 -5,-26l0 24c0,2 0,3 0,4 0,2 -1,3 -2,3 0,1 -2,1 -3,1 -10,0 -19,0 -29,0z"/>
   <path class="fil1" d="M31 29c-1,0 -2,-1 -2,-2 -1,0 -1,-1 -1,-2 -1,-2 0,-3 1,-4 1,-3 5,-4 8,-2 0,1 1,2 1,2 -1,0 -2,0 -3,0 -2,1 -4,2 -4,4 -1,2 -1,3 0,4zm-5 -5c0,2 1,4 2,5 1,2 3,3 5,3 2,0 3,0 4,0 1,-1 2,-2 3,-3 2,-2 2,-6 0,-9 -1,-1 -3,-3 -6,-3 -1,0 -2,0 -3,1 -1,0 -2,1 -3,1 -1,2 -2,3 -2,5z"/>
   <polygon class="fil0" points="49,6 57,6 57,3 49,3 "/>
  </g>
 </g>
</svg>
