<?xml version="1.0" encoding="UTF-8"?>
<!DOCTYPE svg PUBLIC "-//W3C//DTD SVG 1.1//EN" "http://www.w3.org/Graphics/SVG/1.1/DTD/svg11.dtd">
<!-- Creator: CorelDRAW X7 -->
<svg xmlns="http://www.w3.org/2000/svg" xml:space="preserve" width="12.3821mm" height="9.0662mm" version="1.1" style="shape-rendering:geometricPrecision; text-rendering:geometricPrecision; image-rendering:optimizeQuality; fill-rule:evenodd; clip-rule:evenodd"
viewBox="0 0 206 151"
 xmlns:xlink="http://www.w3.org/1999/xlink">
 <defs>
  <style type="text/css">
   <![CDATA[
    .fil1 {fill:white}
    .fil0 {fill:white;fill-rule:nonzero}
   ]]>
  </style>
 </defs>
 <g id="Слой_x0020_1">
  <metadata id="CorelCorpID_0Corel-Layer"/>
  <g id="_2348280396160">
   <path class="fil0" d="M114 62c-3,-5 -10,-8 -17,-6 -6,1 -11,7 -13,14 -1,6 3,12 8,16 -1,-16 5,-21 22,-24l0 0zm7 29c-1,1 -2,2 -2,2 -2,1 -3,2 -4,2 -13,7 -28,2 -34,-10 -5,-13 1,-27 14,-32 13,-5 27,3 31,16 2,9 -2,16 -5,22zm16 -21c-2,30 -17,41 -47,37 10,5 23,4 32,-3 11,-8 16,-19 15,-34zm-18 23c0,0 1,-1 2,-2 7,-7 8,-16 5,-26 -4,-13 -18,-20 -32,-16 -13,4 -21,19 -18,32 4,9 10,16 20,18 8,2 16,1 23,-6l0 0zm-16 34c-29,0 -52,-23 -52,-52 0,-28 23,-51 51,-51 28,0 52,23 52,51 0,29 -23,52 -51,52z"/>
   <path class="fil1" d="M76 75c0,-17 14,-31 32,-27 2,1 4,1 5,2l4 2c4,3 7,7 9,11 3,8 3,14 0,22 -3,7 -11,13 -18,15 -18,4 -32,-10 -32,-25l0 0zm47 -28c1,0 1,0 1,0 3,3 5,5 7,8 1,0 1,1 1,1 1,2 1,2 2,4 5,8 5,19 1,29 -1,2 -2,4 -4,7 -2,3 -5,5 -7,8l-4 2c0,0 -1,1 -1,1 -8,4 -16,5 -25,3 -4,-2 -8,-3 -12,-6 -8,-6 -14,-16 -15,-26 0,-2 0,-4 0,-6l1 0c0,7 1,12 4,18 4,9 12,15 22,17 27,7 51,-21 39,-47 -4,-8 -9,-12 -10,-13l0 0zm0 0c-1,0 0,0 -1,0 1,0 1,0 1,0zm-1 0l0 0 0 0zm0 0c0,0 0,0 0,0 0,0 0,-1 0,0zm0 0l0 -1 0 1zm0 -1l0 0 0 0zm0 0l0 0zm-1 0l1 0 -1 0zm-2 -1l0 0c0,0 0,0 0,0zm0 0l0 0c0,0 0,0 0,0zm-68 29l0 3c0,10 4,20 9,28 6,7 12,13 20,16 5,3 13,5 20,5l4 0c12,0 25,-6 34,-15 2,-1 4,-4 5,-6 2,-2 4,-5 4,-8 3,-4 6,-13 6,-20l0 -3c0,-13 -7,-26 -15,-34 -2,-3 -5,-4 -7,-6 -7,-5 -17,-9 -27,-9l-4 0c-10,0 -20,4 -27,9 -8,5 -13,12 -18,20 -1,4 -4,13 -4,20l0 0z"/>
   <path class="fil1" d="M85 132l29 7c18,4 38,7 56,11l5 0c4,1 7,1 11,0 7,0 14,-4 18,-11 0,-1 0,-3 0,-4 1,-1 2,-4 2,-7 1,-2 -1,-8 -2,-10 0,-2 0,-3 0,-4 -1,-7 -15,-77 -15,-78l-1 75c0,3 0,8 0,12 0,3 -2,6 -5,8 -2,2 -6,1 -11,1 -29,0 -57,0 -87,0l0 0z"/>
   <path class="fil1" d="M17 115l1 -75c0,-4 0,-8 0,-12 1,-3 1,-6 5,-8 3,-2 6,-1 11,-1 28,0 57,0 87,0l-71 -15c-5,-1 -9,-2 -14,-3 -8,-1 -15,-2 -22,1 -2,0 -2,1 -3,2 -4,2 -6,4 -8,8 -2,3 -2,7 -3,10 0,3 1,8 2,11 0,2 0,3 0,4l14 71c0,1 1,6 1,7l0 0z"/>
   <path class="fil1" d="M94 88c-3,-1 -6,-4 -7,-6 -1,-1 -2,-3 -3,-7 -1,-4 0,-8 3,-12 5,-9 17,-11 25,-5 1,1 3,4 4,6 -4,-1 -6,-2 -11,0 -6,1 -11,6 -12,12 -1,5 -1,8 1,12zm-14 -14c0,5 0,10 3,14 5,5 11,10 18,10 5,0 8,-1 11,-2 4,-2 7,-5 10,-8 5,-7 5,-19 0,-27 -4,-5 -11,-9 -18,-9 -5,0 -7,0 -11,2 -3,1 -5,3 -6,4 -4,4 -7,10 -7,16l0 0z"/>
   <polygon class="fil1" points="27,49 49,49 49,33 27,33 "/>
   <polygon class="fil1" points="148,18 172,18 172,8 148,8 "/>
  </g>
 </g>
</svg>
