<?xml version="1.0" encoding="UTF-8"?>
<!DOCTYPE svg PUBLIC "-//W3C//DTD SVG 1.1//EN" "http://www.w3.org/Graphics/SVG/1.1/DTD/svg11.dtd">
<!-- Creator: CorelDRAW X7 -->
<svg xmlns="http://www.w3.org/2000/svg" xml:space="preserve" width="12.3957mm" height="9.0896mm" version="1.1" style="shape-rendering:geometricPrecision; text-rendering:geometricPrecision; image-rendering:optimizeQuality; fill-rule:evenodd; clip-rule:evenodd"
viewBox="0 0 264 194"
 xmlns:xlink="http://www.w3.org/1999/xlink">
 <defs>
  <style type="text/css">
   <![CDATA[
    .fil1 {fill:#212121}
    .fil0 {fill:#212121;fill-rule:nonzero}
   ]]>
  </style>
 </defs>
 <g id="Слой_x0020_1">
  <metadata id="CorelCorpID_0Corel-Layer"/>
  <path class="fil0" d="M146 80c-4,-7 -12,-10 -21,-8 -8,1 -15,9 -17,18 -1,8 3,16 10,20 -1,-20 6,-27 28,-30zm9 37c-1,1 -2,2 -3,3 -2,1 -3,2 -5,2 -16,9 -35,3 -43,-13 -7,-16 1,-35 18,-41 17,-6 34,4 39,21 3,11 -2,20 -6,28zm21 -27c-3,38 -22,53 -61,48 13,6 30,4 42,-4 14,-11 20,-25 19,-44zm-24 30c1,-1 2,-2 3,-3 9,-9 11,-21 7,-33 -6,-17 -24,-26 -41,-21 -17,5 -27,24 -23,41 4,12 12,21 25,23 10,3 21,2 29,-7zm-20 43c-37,0 -66,-29 -66,-66 0,-36 29,-66 65,-66 36,0 66,30 66,66 1,36 -29,66 -65,66z"/>
  <g>
   <path class="fil1" d="M97 96c0,-22 19,-39 41,-34 3,1 5,1 7,2l5 3c5,4 9,9 11,14 5,10 4,18 0,28 -3,9 -13,17 -23,19 -22,5 -41,-12 -41,-32zm61 -35c1,0 1,0 1,0 4,3 7,6 9,10 1,0 1,1 1,1 1,2 2,3 3,5 6,11 6,25 1,37 -1,3 -3,6 -5,9 -3,4 -6,7 -9,10l-5 3c0,0 -1,1 -2,1 -10,5 -20,7 -31,4 -6,-2 -11,-4 -16,-7 -10,-8 -18,-21 -19,-34 0,-2 0,-5 0,-7l1 0c0,9 1,15 5,23 5,11 16,19 28,22 35,8 66,-27 51,-61 -5,-10 -12,-15 -13,-16zm0 0c-1,0 0,0 -1,-1 1,0 1,0 1,1zm-1 -1l0 0 0 0zm0 0c0,0 0,0 0,0 0,0 0,-1 0,0zm0 0l-1 -1 1 1zm-1 -1l0 0 0 0zm0 0l0 0zm-1 0l1 0zm-2 -1l0 0c0,0 0,0 0,0zm0 0l0 0c0,0 0,0 0,0zm-88 37l0 4c0,13 6,26 12,36 7,9 15,16 26,21 6,3 16,6 25,6l5 0c16,0 33,-8 44,-19 2,-2 5,-5 7,-8 2,-3 4,-7 5,-10 3,-6 7,-17 7,-26l0 -4c0,-17 -9,-33 -19,-44 -3,-3 -6,-5 -9,-7 -9,-7 -22,-12 -35,-12l-5 0c-13,0 -26,5 -35,12 -10,6 -16,15 -22,25 -2,6 -6,17 -6,26z"/>
  </g>
  <path class="fil1" d="M109 170l37 8c23,5 49,10 72,14l7 1c4,1 9,1 13,0 10,-1 18,-6 23,-15 0,-1 1,-3 1,-4 1,-2 2,-6 2,-9 1,-3 -1,-11 -2,-14 0,-2 0,-3 0,-5 -2,-9 -20,-98 -20,-100l-1 96c0,5 0,11 0,16 0,4 -2,8 -6,10 -3,3 -8,2 -14,2 -37,0 -74,0 -112,0z"/>
  <path class="fil1" d="M22 148l1 -96c0,-5 0,-11 0,-16 1,-4 2,-8 6,-10 4,-3 8,-2 14,-2 37,0 74,0 112,0l-91 -19c-6,-1 -12,-2 -18,-3 -10,-2 -19,-3 -28,1 -2,0 -3,1 -4,2 -5,3 -8,6 -10,11 -3,4 -3,8 -4,13 0,3 1,10 2,14 0,2 0,3 1,5l18 91c0,1 1,8 1,9z"/>
  <path class="fil1" d="M120 113c-3,-1 -7,-5 -8,-7 -2,-2 -3,-5 -4,-9 -1,-6 0,-11 3,-16 7,-11 22,-14 32,-6 2,1 5,5 6,7 -5,-1 -8,-2 -14,0 -8,2 -14,8 -16,16 -1,6 -1,10 1,15zm-18 -18c0,7 1,13 5,18 6,7 14,13 23,13 6,0 10,-1 14,-3 5,-2 9,-6 12,-10 7,-9 7,-24 0,-34 -5,-7 -14,-12 -23,-12 -6,0 -9,0 -14,2 -3,2 -6,4 -8,6 -5,5 -9,13 -9,20z"/>
  <polygon class="fil1" points="34,63 63,63 63,42 34,42 "/>
  <polygon class="fil1" points="190,23 220,23 220,11 190,11 "/>
 </g>
</svg>
