<?xml version="1.0" encoding="UTF-8"?>
<!DOCTYPE svg PUBLIC "-//W3C//DTD SVG 1.1//EN" "http://www.w3.org/Graphics/SVG/1.1/DTD/svg11.dtd">
<!-- Creator: CorelDRAW X7 -->
<svg xmlns="http://www.w3.org/2000/svg" xml:space="preserve" width="8.4668mm" height="8.4668mm" version="1.1" style="shape-rendering:geometricPrecision; text-rendering:geometricPrecision; image-rendering:optimizeQuality; fill-rule:evenodd; clip-rule:evenodd"
viewBox="0 0 45 45"
 xmlns:xlink="http://www.w3.org/1999/xlink">
 <defs>
  <style type="text/css">
   <![CDATA[
    .fil0 {fill:#4680C2}
    .fil1 {fill:white}
   ]]>
  </style>
 </defs>
 <g id="Слой_x0020_1">
  <metadata id="CorelCorpID_0Corel-Layer"/>
  <g id="_2162086199472">
   <path class="fil0" d="M16 0l13 0c13,0 16,3 16,16l0 13c0,13 -3,16 -16,16l-13 0c-13,0 -16,-3 -16,-16l0 -13c0,-13 3,-16 16,-16z"/>
   <path class="fil1" d="M37 15c0,0 0,-1 -1,-1l-4 0c0,0 -1,1 -1,1 0,0 -2,4 -4,7 -1,1 -1,1 -2,1 0,0 0,0 0,-1l0 -7c0,0 0,-1 -1,-1l-5 0c-1,0 -1,1 -1,1 0,1 1,1 1,3l0 5c0,1 0,1 0,1 -1,0 -4,-4 -6,-9 0,0 0,-1 -1,-1l-3 0c-1,0 -1,1 -1,1 0,1 1,5 5,11 2,4 6,6 10,6 2,0 2,-1 2,-1l0 -3c0,-1 0,-1 1,-1 0,0 1,0 3,2 2,2 3,3 4,3l3 0c1,0 2,-1 1,-1 0,-1 -1,-3 -2,-4 -1,-1 -2,-2 -3,-3 0,0 0,0 0,-1 0,0 4,-6 5,-8z"/>
  </g>
 </g>
</svg>
