<svg width="26" height="15" viewBox="0 0 26 15" fill="none" xmlns="http://www.w3.org/2000/svg">
<path fill-rule="evenodd" clip-rule="evenodd" d="M0 0.967742C0 1.45161 0.991111 5.32258 4.46 9.91935C6.93778 13.3065 10.1589 15 13.1322 15C14.8667 15 15.1144 14.7581 15.1144 14.0323V11.6129C15.1144 10.6452 15.3622 10.6452 15.8578 10.6452C16.3533 10.6452 17.0967 10.8871 18.5833 12.3387C20.5655 14.2742 21.0611 15 22.0522 15H24.7778C25.5211 15 26.0167 14.7581 25.7689 13.7903C25.5211 13.0645 24.53 12.0968 23.5389 10.6452C22.7955 9.91935 21.8044 9.19355 21.5567 8.70968C21.0611 8.22581 21.3089 7.98387 21.5567 7.5C21.5567 7.5 25.0255 2.66129 25.2733 1.20968C25.5211 0.483871 25.2733 0 24.53 0H21.5567C20.8133 0 20.5655 0.483871 20.3178 0.967742C20.3178 0.967742 18.8311 4.35484 16.8489 6.53226C16.3533 7.25806 15.8578 7.25806 15.61 7.25806C15.3622 7.25806 15.1144 7.25806 15.1144 6.53226V1.20968C15.1144 0.483871 14.8667 0 14.3711 0H9.91111C9.41555 0 9.16777 0.483871 9.16777 0.725806C9.16777 1.45161 10.1589 1.45161 10.4067 3.3871V7.5C10.4067 8.46774 10.1589 8.46774 9.91111 8.46774C8.92 8.46774 6.44222 5.08065 5.20333 1.20968C4.95555 0.483871 4.46 0 3.96444 0H0.991111C0.247778 0 0 0.483871 0 0.967742Z" fill="#FEFEFE"/>
</svg>
